<svg>
    <symbol id="phone" viewBox="0 0 14 20" xmlns="http://www.w3.org/2000/svg">
        <path fill-rule="evenodd" clip-rule="evenodd" d="M6.18001 1.89997H7.82C8.9138 1.89997 9.6259 1.90138 10.1693 1.94577C10.6916 1.98845 10.8976 2.06172 11.008 2.11796C11.3843 2.30971 11.6903 2.61567 11.882 2.99199C11.9383 3.10238 12.0115 3.30838 12.0542 3.83072C12.0986 4.37408 12.1 5.08617 12.1 6.17998V13.82C12.1 14.9138 12.0986 15.6259 12.0542 16.1693C12.0115 16.6916 11.9383 16.8976 11.882 17.008C11.6903 17.3843 11.3843 17.6903 11.008 17.882C10.8976 17.9383 10.6916 18.0115 10.1693 18.0542C9.6259 18.0986 8.9138 18.1 7.82 18.1H6.18001C5.08621 18.1 4.37411 18.0986 3.83075 18.0542C3.30841 18.0115 3.10242 17.9383 2.99203 17.882C2.6157 17.6903 2.30974 17.3843 2.11799 17.008C2.06175 16.8976 1.98848 16.6916 1.9458 16.1693C1.90141 15.6259 1.90001 14.9138 1.90001 13.82V6.17997C1.90001 5.08617 1.90141 4.37408 1.9458 3.83072C1.98848 3.30838 2.06175 3.10239 2.11799 2.99199C2.30974 2.61567 2.6157 2.30971 2.99203 2.11796C3.10242 2.06172 3.30841 1.98845 3.83075 1.94577C4.37411 1.90138 5.08621 1.89997 6.18001 1.89997ZM0.100006 6.17997C0.100006 4.05177 0.100006 2.98768 0.514181 2.17481C0.8785 1.4598 1.45983 0.878469 2.17484 0.514151C2.98771 0.0999754 4.05181 0.0999756 6.18001 0.0999756H7.82C9.9482 0.0999756 11.0123 0.0999754 11.8252 0.514151C12.5402 0.878469 13.1215 1.4598 13.4858 2.17481C13.9 2.98768 13.9 4.05178 13.9 6.17998V13.82C13.9 15.9482 13.9 17.0123 13.4858 17.8252C13.1215 18.5402 12.5402 19.1215 11.8252 19.4858C11.0123 19.9 9.9482 19.9 7.82 19.9H6.18001C4.05181 19.9 2.98771 19.9 2.17484 19.4858C1.45983 19.1215 0.8785 18.5402 0.514181 17.8252C0.100006 17.0123 0.100006 15.9482 0.100006 13.82V6.17997ZM6.25 14.2C5.75294 14.2 5.35 14.6029 5.35 15.1C5.35 15.597 5.75294 16 6.25 16H7.75C8.24706 16 8.65 15.597 8.65 15.1C8.65 14.6029 8.24706 14.2 7.75 14.2H6.25Z"/>
    </symbol>
    <symbol id="mail" viewBox="0 0 20 16" xmlns="http://www.w3.org/2000/svg">
        <path fill-rule="evenodd" clip-rule="evenodd" d="M5.79998 0.0999759H5.76228H5.76225C4.95421 0.099966 4.29336 0.0999579 3.75629 0.143838C3.20038 0.189258 2.6983 0.286141 2.22941 0.525051C1.49558 0.898957 0.898957 1.49558 0.525051 2.22941C0.28614 2.6983 0.189258 3.20038 0.143838 3.75629C0.0999575 4.29337 0.0999658 4.95421 0.0999759 5.76226V5.76228V5.79998V10.2V10.2377V10.2377C0.0999658 11.0457 0.0999575 11.7066 0.143838 12.2437C0.189258 12.7996 0.28614 13.3017 0.525051 13.7705C0.898957 14.5044 1.49558 15.101 2.22941 15.4749C2.6983 15.7138 3.20038 15.8107 3.75629 15.8561C4.29337 15.9 4.95422 15.9 5.76227 15.9H5.79998H14.2H14.2377C15.0457 15.9 15.7066 15.9 16.2437 15.8561C16.7996 15.8107 17.3017 15.7138 17.7705 15.4749C18.5044 15.101 19.101 14.5044 19.4749 13.7705C19.7138 13.3017 19.8107 12.7996 19.8561 12.2437C19.9 11.7066 19.9 11.0457 19.9 10.2377V10.2V5.79998V5.76227C19.9 4.95422 19.9 4.29337 19.8561 3.75629C19.8107 3.20038 19.7138 2.6983 19.4749 2.22941C19.101 1.49558 18.5044 0.898957 17.7705 0.525051C17.3017 0.286141 16.7996 0.189258 16.2437 0.143838C15.7066 0.0999579 15.0457 0.099966 14.2377 0.0999759H14.2377H14.2H5.79998ZM3.38061 2.01214C3.51618 1.98079 3.68477 1.95568 3.90287 1.93786C4.35798 1.90068 4.94505 1.89998 5.79998 1.89998H14.2C15.0549 1.89998 15.642 1.90068 16.0971 1.93786C16.3152 1.95568 16.4838 1.98079 16.6193 2.01214L12.6103 5.52006C12.0325 6.02564 11.6369 6.371 11.3074 6.61735C10.987 6.85696 10.7832 6.96052 10.6069 7.01267C10.2107 7.12981 9.78921 7.12981 9.3931 7.01267C9.21676 6.96052 9.01295 6.85696 8.69253 6.61735C8.3631 6.371 7.96747 6.02565 7.38967 5.52006L3.38061 2.01214ZM2.05037 3.23996C2.00084 3.39565 1.96243 3.60221 1.93786 3.90287C1.90068 4.35798 1.89998 4.94505 1.89998 5.79998V10.2C1.89998 11.0549 1.90068 11.642 1.93786 12.0971C1.97419 12.5417 2.04079 12.7805 2.12886 12.9534C2.3302 13.3485 2.65146 13.6698 3.0466 13.8711C3.21944 13.9592 3.45827 14.0258 3.90287 14.0621C4.35798 14.0993 4.94505 14.1 5.79998 14.1H14.2C15.0549 14.1 15.642 14.0993 16.0971 14.0621C16.5417 14.0258 16.7805 13.9592 16.9534 13.8711C17.3485 13.6698 17.6698 13.3485 17.8711 12.9534C17.9592 12.7805 18.0258 12.5417 18.0621 12.0971C18.0993 11.642 18.1 11.0549 18.1 10.2V5.79998C18.1 4.94505 18.0993 4.35798 18.0621 3.90287C18.0375 3.60221 17.9991 3.39565 17.9496 3.23996L13.7956 6.8747L13.7694 6.89764C13.2242 7.37465 12.7768 7.76618 12.3854 8.05886C11.9787 8.36296 11.5796 8.60207 11.1173 8.73877C10.388 8.95444 9.61192 8.95444 8.88265 8.73877C8.4204 8.60207 8.02121 8.36296 7.61455 8.05886C7.22317 7.76619 6.77574 7.37468 6.23062 6.89768L6.20436 6.8747L2.05037 3.23996Z"/>
    </symbol>
    <symbol id="arrow" viewBox="0 0 7 12" xmlns="http://www.w3.org/2000/svg">
        <path fill-rule="evenodd" clip-rule="evenodd" d="M0.263627 0.263605C-0.0878444 0.615078 -0.0878429 1.18493 0.26363 1.5364L4.72723 5.99998L0.263627 10.4636C-0.0878444 10.8151 -0.0878429 11.3849 0.26363 11.7364C0.615103 12.0879 1.18495 12.0879 1.53642 11.7364L6.63642 6.63637C6.98789 6.2849 6.98789 5.71505 6.63642 5.36358L1.53642 0.263602C1.18495 -0.0878686 0.615098 -0.0878673 0.263627 0.263605Z"/>
    </symbol>
    <symbol id="geolocation" viewBox="0 0 16 20" xmlns="http://www.w3.org/2000/svg">
        <path fill-rule="evenodd" clip-rule="evenodd" d="M8 11C9.933 11 11.5 9.433 11.5 7.5C11.5 5.567 9.933 4 8 4C6.067 4 4.5 5.567 4.5 7.5C4.5 9.433 6.067 11 8 11ZM8 9.19999C8.93888 9.19999 9.7 8.43887 9.7 7.49999C9.7 6.5611 8.93888 5.79999 8 5.79999C7.06112 5.79999 6.3 6.5611 6.3 7.49999C6.3 8.43887 7.06112 9.19999 8 9.19999Z" />
        <path fill-rule="evenodd" clip-rule="evenodd" d="M0.242859 7.76987C0.242859 3.48026 3.71428 0 8 0C12.2857 0 15.7571 3.48026 15.7571 7.76987C15.7571 10.903 13.7831 14.6225 10.1924 18.8679C10.0893 18.9898 9.97622 19.1029 9.8543 19.206C8.64346 20.2301 6.83168 20.0787 5.80758 18.8679L5.2405 18.1974L5.24626 18.1923C2.01172 14.2269 0.242859 10.7357 0.242859 7.76987ZM7.18501 17.7091C7.56768 18.1576 8.24131 18.2128 8.69191 17.8317C8.73739 17.7932 8.77959 17.751 8.81807 17.7055C12.3633 13.5139 13.9571 10.2221 13.9571 7.76987C13.9571 4.47123 11.2885 1.8 8 1.8C4.71154 1.8 2.04286 4.47123 2.04286 7.76987C2.04286 10.2221 3.63673 13.5139 7.18193 17.7055L7.18501 17.7091Z"/>
    </symbol>
    <symbol id="medicine" viewBox="0 0 20 18" xmlns="http://www.w3.org/2000/svg">
        <path fill-rule="evenodd" clip-rule="evenodd" d="M9.16461 0.100098H9.20001H10.8H10.8354H10.8354C11.3653 0.100084 11.8165 0.100072 12.1869 0.130337C12.5761 0.162133 12.9546 0.231767 13.3166 0.416181C13.8623 0.694213 14.3059 1.13786 14.5839 1.68353C14.7683 2.04546 14.838 2.42405 14.8698 2.81321C14.8988 3.1685 14.9 3.59807 14.9 4.1001H15.8L15.8354 4.1001C16.3653 4.10008 16.8165 4.10007 17.1869 4.13034C17.5761 4.16213 17.9546 4.23177 18.3166 4.41618C18.8623 4.69421 19.3059 5.13786 19.5839 5.68353C19.7683 6.04546 19.838 6.42405 19.8698 6.81321C19.9 7.18364 19.9 7.6348 19.9 8.16465V8.16467V8.16469V8.2001V9.6001V9.63344C19.9 10.0249 19.9 10.3714 19.8766 10.6586C19.8516 10.9644 19.7956 11.2812 19.6384 11.5897C19.4083 12.0413 19.0412 12.4084 18.5896 12.6385C18.3617 12.7546 18.1292 12.8155 17.9 12.8495V13.4001V13.4362C17.9 14.0355 17.9 14.5391 17.8664 14.9512C17.8312 15.382 17.7547 15.7915 17.5567 16.1802C17.2547 16.7729 16.7728 17.2548 16.1801 17.5568C15.7914 17.7548 15.3819 17.8313 14.9511 17.8665C14.539 17.9001 14.0355 17.9001 13.4362 17.9001H13.4362L13.4 17.9001H6.60001L6.56387 17.9001H6.56377C5.96453 17.9001 5.46099 17.9001 5.04892 17.8665C4.61808 17.8313 4.20861 17.7548 3.81994 17.5568C3.22723 17.2548 2.74534 16.7729 2.44334 16.1802C2.2453 15.7915 2.16885 15.382 2.13365 14.9512C2.09998 14.5391 2.1 14.0355 2.10001 13.4362L2.10001 13.4001V12.8495C1.8708 12.8155 1.63832 12.7546 1.41043 12.6385C0.958843 12.4084 0.59169 12.0413 0.361593 11.5897C0.204428 11.2812 0.148418 10.9644 0.123434 10.6586C0.0999738 10.3714 0.0999894 10.025 0.100007 9.63348V9.63343L0.100009 9.6001V8.2001L0.100007 8.1647V8.16464C0.0999937 7.63479 0.0999822 7.18363 0.130247 6.81321C0.162042 6.42405 0.231676 6.04546 0.41609 5.68353C0.694123 5.13786 1.13777 4.69421 1.68344 4.41618C2.04537 4.23177 2.42396 4.16213 2.81312 4.13034C3.18356 4.10007 3.63474 4.10008 4.16461 4.1001L4.20001 4.1001H5.10001C5.10004 3.59807 5.10122 3.1685 5.13025 2.81321C5.16204 2.42405 5.23168 2.04546 5.41609 1.68353C5.69412 1.13786 6.13777 0.694213 6.68344 0.416181C7.04537 0.231767 7.42396 0.162133 7.81312 0.130337C8.18355 0.100072 8.63472 0.100084 9.16458 0.100098H9.16461ZM3.40001 11.1001H16.6C17.0349 11.1001 17.3069 11.0994 17.5119 11.0827C17.7064 11.0668 17.76 11.041 17.7724 11.0347C17.8853 10.9772 17.9771 10.8854 18.0346 10.7725C18.0409 10.7601 18.0667 10.7065 18.0826 10.512C18.0993 10.307 18.1 10.035 18.1 9.6001V8.2001C18.1 7.6252 18.0993 7.24815 18.0758 6.95979C18.053 6.68194 18.0137 6.5666 17.9801 6.50071C17.8747 6.29373 17.7064 6.12545 17.4994 6.01999C17.4335 5.98642 17.3182 5.94706 17.0403 5.92436C16.752 5.9008 16.3749 5.9001 15.8 5.9001H14.9V5.90011H14H6.00001H5.10001V5.9001H4.20001C3.62511 5.9001 3.24806 5.9008 2.9597 5.92436C2.68185 5.94706 2.56651 5.98642 2.50062 6.01999C2.29364 6.12545 2.12536 6.29373 2.0199 6.50071C1.98633 6.5666 1.94697 6.68194 1.92427 6.95979C1.90071 7.24815 1.90001 7.6252 1.90001 8.2001V9.6001C1.90001 10.035 1.90071 10.307 1.91746 10.512C1.93335 10.7065 1.95908 10.7601 1.96541 10.7725C2.02293 10.8854 2.11472 10.9772 2.22761 11.0347C2.24003 11.041 2.29363 11.0668 2.4881 11.0827C2.69308 11.0994 2.96512 11.1001 3.40001 11.1001ZM3.90001 12.9001V13.4001C3.90001 14.045 3.90071 14.4746 3.92767 14.8046C3.95378 15.1241 3.99995 15.2704 4.04715 15.363C4.17658 15.617 4.3831 15.8235 4.63712 15.953C4.72975 16.0002 4.87597 16.0463 5.1955 16.0724C5.52554 16.0994 5.9551 16.1001 6.60001 16.1001H13.4C14.0449 16.1001 14.4745 16.0994 14.8045 16.0724C15.1241 16.0463 15.2703 16.0002 15.3629 15.953C15.6169 15.8235 15.8234 15.617 15.9529 15.363C16.0001 15.2704 16.0462 15.1241 16.0723 14.8046C16.0993 14.4746 16.1 14.045 16.1 13.4001V12.9001H3.90001ZM13.0757 2.95979C13.0979 3.23108 13.0998 3.58088 13.1 4.1001H6.90002C6.90017 3.58088 6.9021 3.23108 6.92427 2.95979C6.94697 2.68194 6.98633 2.5666 7.0199 2.50071C7.12536 2.29373 7.29364 2.12545 7.50062 2.01999C7.56651 1.98642 7.68185 1.94706 7.9597 1.92436C8.24806 1.9008 8.62511 1.9001 9.20001 1.9001H10.8C11.3749 1.9001 11.752 1.9008 12.0403 1.92436C12.3182 1.94706 12.4335 1.98642 12.4994 2.01999C12.7064 2.12545 12.8747 2.29373 12.9801 2.50071C13.0137 2.5666 13.053 2.68194 13.0757 2.95979Z" />
    </symbol>
</svg>